<svg width="150" height="48" viewBox="0 0 150 48" fill="none" xmlns="http://www.w3.org/2000/svg">
<path d="M21.8013 18.85L27.5313 12.5L33.3313 19.09" stroke="#353535" stroke-width="3" stroke-miterlimit="10" stroke-linecap="square"/>
<path d="M3.00098 28.0001L16.151 13.1501L30.621 29.5801C30.621 29.5801 37.951 21.2101 39.561 19.0001C42.971 14.7001 43.651 3.7001 32.031 2.0001H7.68098C7.07033 1.99615 6.46488 2.11251 5.8992 2.34255C5.33352 2.57259 4.8187 2.9118 4.38411 3.34081C3.94953 3.76982 3.60371 4.28023 3.36639 4.84289C3.12907 5.40555 3.0049 6.00945 3.00098 6.6201V28.0001Z" stroke="#353535" stroke-width="3" stroke-miterlimit="10" stroke-linecap="round"/>
<path d="M38.681 27.72L28.561 39.18L16.421 25.55C16.421 25.55 5.33102 38.1001 3.62102 40.1101C1.92102 42.2801 3.72102 46.11 8.90102 46H33.361C35.961 46 41.001 42.28 41.621 37.48C41.8564 35.7376 41.7158 33.965 41.2087 32.2814C40.7015 30.5979 39.8397 29.0426 38.681 27.72Z" stroke="#48A855" stroke-width="3" stroke-miterlimit="10"/>
<path d="M34.811 14.5801C36.4679 14.5801 37.811 13.2369 37.811 11.5801C37.811 9.92322 36.4679 8.58008 34.811 8.58008C33.1542 8.58008 31.811 9.92322 31.811 11.5801C31.811 13.2369 33.1542 14.5801 34.811 14.5801Z" fill="#F7931E"/>
<path d="M49.132 27C48.412 27 48.052 26.64 48.052 25.92V9.18C48.052 8.46 48.412 8.1 49.132 8.1H54.478C56.764 8.1 58.393 8.541 59.365 9.423C60.355 10.305 60.85 11.457 60.85 12.879C60.85 13.491 60.715 14.067 60.445 14.607C60.193 15.147 59.842 15.624 59.392 16.038C58.96 16.434 58.474 16.749 57.934 16.983L57.961 17.091C58.393 17.181 58.789 17.325 59.149 17.523C59.527 17.721 59.869 17.964 60.175 18.252C60.481 18.522 60.733 18.837 60.931 19.197C61.147 19.539 61.309 19.908 61.417 20.304C61.543 20.7 61.606 21.105 61.606 21.519C61.606 23.265 61.048 24.615 59.932 25.569C58.834 26.523 57.142 27 54.856 27H49.132ZM52.21 23.463H54.856C55.648 23.463 56.26 23.274 56.692 22.896C57.124 22.518 57.34 21.978 57.34 21.276C57.34 20.574 57.088 20.052 56.584 19.71C56.08 19.35 55.36 19.17 54.424 19.17H52.21V23.463ZM52.21 15.633H54.073C54.883 15.633 55.504 15.435 55.936 15.039C56.368 14.643 56.584 14.166 56.584 13.608C56.584 12.942 56.377 12.447 55.963 12.123C55.567 11.781 54.955 11.61 54.127 11.61H52.21V15.633ZM65.1639 27C64.4439 27 64.0839 26.64 64.0839 25.92V9.18C64.0839 8.46 64.4439 8.1 65.1639 8.1H74.6409C75.1809 8.1 75.4509 8.55 75.4509 9.45V10.287C75.4509 11.187 75.1809 11.637 74.6409 11.637H68.2419V15.552H73.9119C74.4519 15.552 74.7219 16.002 74.7219 16.902V17.739C74.7219 18.639 74.4519 19.089 73.9119 19.089H68.2419V23.463H74.6679C75.2079 23.463 75.4779 23.913 75.4779 24.813V25.65C75.4779 26.55 75.2079 27 74.6679 27H65.1639ZM83.8451 27.054C82.7651 27.054 82.2251 26.766 82.2251 26.19V17.928L76.8521 9.261C76.6721 8.955 76.5821 8.73 76.5821 8.586C76.5821 8.424 76.7171 8.298 76.9871 8.208C77.2751 8.1 77.7161 8.046 78.3101 8.046H79.4711C79.8671 8.046 80.2001 8.082 80.4701 8.154C80.7581 8.226 80.9651 8.361 81.0911 8.559L84.3851 14.337L87.7061 8.559C87.8321 8.361 88.0301 8.226 88.3001 8.154C88.5881 8.082 88.9301 8.046 89.3261 8.046H90.2981C91.4321 8.046 91.9991 8.226 91.9991 8.586C91.9991 8.658 91.9811 8.757 91.9451 8.883C91.9091 8.991 91.8461 9.117 91.7561 9.261L86.3831 18.009V26.19C86.3831 26.766 85.8431 27.054 84.7631 27.054H83.8451ZM100.891 27.216C98.1188 27.216 95.9768 26.388 94.4648 24.732C92.9708 23.058 92.2238 20.664 92.2238 17.55C92.2238 14.436 92.9708 12.051 94.4648 10.395C95.9768 8.721 98.1188 7.884 100.891 7.884C103.681 7.884 105.814 8.721 107.29 10.395C108.784 12.051 109.531 14.436 109.531 17.55C109.531 20.664 108.784 23.058 107.29 24.732C105.814 26.388 103.681 27.216 100.891 27.216ZM100.891 23.679C102.331 23.679 103.42 23.157 104.158 22.113C104.896 21.051 105.265 19.53 105.265 17.55C105.265 15.57 104.896 14.058 104.158 13.014C103.42 11.97 102.331 11.448 100.891 11.448C99.4508 11.448 98.3528 11.97 97.5968 13.014C96.8588 14.058 96.4898 15.57 96.4898 17.55C96.4898 19.53 96.8588 21.051 97.5968 22.113C98.3528 23.157 99.4508 23.679 100.891 23.679ZM114.241 27.054C113.161 27.054 112.621 26.766 112.621 26.19V8.91C112.621 8.334 113.161 8.046 114.241 8.046H115.402C115.798 8.046 116.14 8.091 116.428 8.181C116.734 8.271 116.986 8.469 117.184 8.775L123.259 18.144C123.457 18.414 123.628 18.675 123.772 18.927C123.934 19.179 124.087 19.449 124.231 19.737L124.339 19.71C124.321 19.404 124.303 19.125 124.285 18.873C124.285 18.603 124.285 18.27 124.285 17.874V8.91C124.285 8.334 124.825 8.046 125.905 8.046H126.688C127.768 8.046 128.308 8.334 128.308 8.91V26.19C128.308 26.766 127.768 27.054 126.688 27.054H125.662C125.266 27.054 124.915 27.009 124.609 26.919C124.321 26.829 124.078 26.631 123.88 26.325L117.67 16.821C117.49 16.551 117.319 16.29 117.157 16.038C116.995 15.786 116.842 15.516 116.698 15.228L116.59 15.255C116.626 15.561 116.644 15.849 116.644 16.119C116.644 16.371 116.644 16.695 116.644 17.091V26.19C116.644 26.766 116.104 27.054 115.024 27.054H114.241ZM133.296 27C132.576 27 132.216 26.64 132.216 25.92V9.18C132.216 8.46 132.576 8.1 133.296 8.1H139.074C140.928 8.1 142.494 8.469 143.772 9.207C145.068 9.927 146.049 10.989 146.715 12.393C147.381 13.797 147.714 15.516 147.714 17.55C147.714 19.08 147.525 20.43 147.147 21.6C146.769 22.77 146.211 23.76 145.473 24.57C144.735 25.362 143.826 25.965 142.746 26.379C141.684 26.793 140.46 27 139.074 27H133.296ZM136.401 23.463H139.074C140.046 23.463 140.856 23.238 141.504 22.788C142.152 22.338 142.638 21.672 142.962 20.79C143.286 19.908 143.448 18.828 143.448 17.55C143.448 16.272 143.286 15.192 142.962 14.31C142.638 13.428 142.152 12.762 141.504 12.312C140.856 11.862 140.046 11.637 139.074 11.637H136.401V23.463Z" fill="#353535"/>
<path d="M50.2259 43.9659C49.8793 43.9659 49.7059 43.8706 49.7059 43.6799V35.8279H47.2099C47.0366 35.8279 46.9499 35.6979 46.9499 35.4379V35.2299C46.9499 34.9699 47.0366 34.8399 47.2099 34.8399H53.3069C53.4803 34.8399 53.5669 34.9699 53.5669 35.2299V35.4379C53.5669 35.6979 53.4803 35.8279 53.3069 35.8279H50.8499V43.6799C50.8499 43.8706 50.6766 43.9659 50.3299 43.9659H50.2259ZM55.6187 43.9659C55.272 43.9659 55.0987 43.8706 55.0987 43.6799V35.0999C55.0987 34.9093 55.272 34.8139 55.6187 34.8139H55.7227C56.0694 34.8139 56.2427 34.9093 56.2427 35.0999V38.7789H60.9487V35.0999C60.9487 34.9093 61.122 34.8139 61.4687 34.8139H61.5727C61.9194 34.8139 62.0927 34.9093 62.0927 35.0999V43.6799C62.0927 43.8706 61.9194 43.9659 61.5727 43.9659H61.4687C61.122 43.9659 60.9487 43.8706 60.9487 43.6799V39.7669H56.2427V43.6799C56.2427 43.8706 56.0694 43.9659 55.7227 43.9659H55.6187ZM65.0229 43.9399C64.7629 43.9399 64.6329 43.8099 64.6329 43.5499V35.2299C64.6329 34.9699 64.7629 34.8399 65.0229 34.8399H69.5599C69.7332 34.8399 69.8199 34.9699 69.8199 35.2299V35.4379C69.8199 35.6979 69.7332 35.8279 69.5599 35.8279H65.7769V38.7919H69.1699C69.3432 38.7919 69.4299 38.9219 69.4299 39.1819V39.3899C69.4299 39.6499 69.3432 39.7799 69.1699 39.7799H65.7769V42.9519H69.5729C69.7462 42.9519 69.8329 43.0819 69.8329 43.3419V43.5499C69.8329 43.8099 69.7462 43.9399 69.5729 43.9399H65.0229ZM78.8176 41.4049C78.6876 41.4049 78.5923 41.3486 78.5316 41.2359L76.2176 37.2059C76.1569 37.1106 76.1006 37.0153 76.0486 36.9199C76.0053 36.8246 75.9576 36.7249 75.9056 36.6209L75.8536 36.6339C75.8709 36.7466 75.8796 36.8636 75.8796 36.9849C75.8796 37.1063 75.8796 37.2276 75.8796 37.3489V43.6799C75.8796 43.8706 75.7063 43.9659 75.3596 43.9659H75.2686C74.9219 43.9659 74.7486 43.8706 74.7486 43.6799V35.0999C74.7486 34.9093 74.9219 34.8139 75.2686 34.8139H75.7366C75.8926 34.8139 76.0139 34.8356 76.1006 34.8789C76.1873 34.9223 76.2479 34.9786 76.2826 35.0479L78.7396 39.3119C78.8089 39.4246 78.8739 39.5546 78.9346 39.7019C78.9953 39.8493 79.0429 39.9923 79.0776 40.1309C79.1209 39.9836 79.1816 39.8319 79.2596 39.6759C79.3463 39.5113 79.4199 39.3769 79.4806 39.2729L81.8726 35.0479C81.9159 34.9786 81.9766 34.9223 82.0546 34.8789C82.1413 34.8356 82.2626 34.8139 82.4186 34.8139H82.8476C83.1943 34.8139 83.3676 34.9093 83.3676 35.0999V43.6799C83.3676 43.8706 83.1943 43.9659 82.8476 43.9659H82.7566C82.4099 43.9659 82.2366 43.8706 82.2366 43.6799V37.4269C82.2366 37.3056 82.2366 37.1843 82.2366 37.0629C82.2453 36.9416 82.2539 36.8246 82.2626 36.7119L82.2106 36.6989C82.1586 36.8029 82.1066 36.9026 82.0546 36.9979C82.0113 37.0933 81.9593 37.1886 81.8986 37.2839L79.6236 41.2359C79.5629 41.3486 79.4676 41.4049 79.3376 41.4049H78.8176ZM89.2797 44.0179C87.9797 44.0179 86.9873 43.6236 86.3027 42.8349C85.618 42.0376 85.2757 40.8806 85.2757 39.3639C85.2757 37.8386 85.618 36.6903 86.3027 35.9189C86.9873 35.1476 87.9797 34.7619 89.2797 34.7619C90.5883 34.7619 91.585 35.1476 92.2697 35.9189C92.9543 36.6903 93.2967 37.8386 93.2967 39.3639C93.2967 40.8806 92.9543 42.0376 92.2697 42.8349C91.585 43.6236 90.5883 44.0179 89.2797 44.0179ZM89.2797 43.0299C90.1983 43.0299 90.9003 42.7179 91.3857 42.0939C91.871 41.4699 92.1137 40.5599 92.1137 39.3639C92.1137 38.1679 91.871 37.2666 91.3857 36.6599C90.9003 36.0533 90.1983 35.7499 89.2797 35.7499C88.361 35.7499 87.659 36.0533 87.1737 36.6599C86.697 37.2666 86.4587 38.1679 86.4587 39.3639C86.4587 40.5599 86.697 41.4699 87.1737 42.0939C87.659 42.7179 88.361 43.0299 89.2797 43.0299ZM98.6715 44.0179C97.5188 44.0179 96.6391 43.7536 96.0325 43.2249C95.4258 42.6963 95.1225 41.9639 95.1225 41.0279V35.0999C95.1225 34.9093 95.2958 34.8139 95.6425 34.8139H95.7465C96.0931 34.8139 96.2665 34.9093 96.2665 35.0999V41.0669C96.2665 41.4483 96.3705 41.7906 96.5785 42.0939C96.7865 42.3886 97.0725 42.6183 97.4365 42.7829C97.8005 42.9476 98.2121 43.0299 98.6715 43.0299C99.1395 43.0299 99.5511 42.9476 99.9065 42.7829C100.27 42.6096 100.556 42.3756 100.764 42.0809C100.972 41.7863 101.076 41.4483 101.076 41.0669V35.0999C101.076 34.9093 101.25 34.8139 101.596 34.8139H101.7C102.047 34.8139 102.22 34.9093 102.22 35.0999V41.0279C102.22 41.9639 101.913 42.6963 101.297 43.2249C100.691 43.7536 99.8155 44.0179 98.6715 44.0179ZM104.988 43.9659C104.642 43.9659 104.468 43.8706 104.468 43.6799V35.0999C104.468 34.9093 104.642 34.8139 104.988 34.8139H105.261C105.409 34.8139 105.521 34.8313 105.599 34.8659C105.677 34.9006 105.747 34.9656 105.807 35.0609L109.889 41.2229C109.976 41.3529 110.054 41.4829 110.123 41.6129C110.193 41.7343 110.258 41.8643 110.318 42.0029L110.37 41.9899C110.362 41.8426 110.353 41.7083 110.344 41.5869C110.344 41.4569 110.344 41.2966 110.344 41.1059V35.0999C110.344 34.9093 110.518 34.8139 110.864 34.8139H110.955C111.302 34.8139 111.475 34.9093 111.475 35.0999V43.6799C111.475 43.8706 111.302 43.9659 110.955 43.9659H110.695C110.574 43.9659 110.479 43.9529 110.409 43.9269C110.34 43.8923 110.284 43.8446 110.24 43.7839L106.054 37.4659C105.968 37.3359 105.89 37.2103 105.82 37.0889C105.76 36.9589 105.695 36.8246 105.625 36.6859L105.573 36.6989C105.591 36.8463 105.599 36.9849 105.599 37.1149C105.599 37.2363 105.599 37.3923 105.599 37.5829V43.6799C105.599 43.8706 105.426 43.9659 105.079 43.9659H104.988ZM116.178 43.9659C115.831 43.9659 115.658 43.8706 115.658 43.6799V35.8279H113.162C112.989 35.8279 112.902 35.6979 112.902 35.4379V35.2299C112.902 34.9699 112.989 34.8399 113.162 34.8399H119.259C119.432 34.8399 119.519 34.9699 119.519 35.2299V35.4379C119.519 35.6979 119.432 35.8279 119.259 35.8279H116.802V43.6799C116.802 43.8706 116.629 43.9659 116.282 43.9659H116.178ZM119.971 43.9659C119.599 43.9659 119.412 43.8923 119.412 43.7449C119.412 43.7189 119.417 43.6929 119.425 43.6669C119.434 43.6323 119.443 43.5976 119.451 43.5629L122.532 35.0219C122.576 34.8833 122.749 34.8139 123.052 34.8139H123.429C123.733 34.8139 123.906 34.8833 123.949 35.0219L127.03 43.5759C127.056 43.6366 127.069 43.6929 127.069 43.7449C127.069 43.8923 126.883 43.9659 126.51 43.9659H126.406C126.276 43.9659 126.164 43.9529 126.068 43.9269C125.973 43.8923 125.912 43.8359 125.886 43.7579L125.119 41.6259H121.297L120.556 43.7579C120.53 43.8359 120.47 43.8923 120.374 43.9269C120.279 43.9529 120.166 43.9659 120.036 43.9659H119.971ZM121.661 40.6379H124.768L123.403 36.7639C123.369 36.6426 123.338 36.5169 123.312 36.3869C123.286 36.2569 123.265 36.1313 123.247 36.0099H123.221C123.195 36.1313 123.165 36.2569 123.13 36.3869C123.104 36.5169 123.07 36.6426 123.026 36.7639L121.661 40.6379ZM129.01 43.9659C128.663 43.9659 128.49 43.8706 128.49 43.6799V35.0999C128.49 34.9093 128.663 34.8139 129.01 34.8139H129.114C129.461 34.8139 129.634 34.9093 129.634 35.0999V43.6799C129.634 43.8706 129.461 43.9659 129.114 43.9659H129.01ZM132.601 43.9659C132.254 43.9659 132.081 43.8706 132.081 43.6799V35.0999C132.081 34.9093 132.254 34.8139 132.601 34.8139H132.874C133.021 34.8139 133.134 34.8313 133.212 34.8659C133.29 34.9006 133.359 34.9656 133.42 35.0609L137.502 41.2229C137.588 41.3529 137.666 41.4829 137.736 41.6129C137.805 41.7343 137.87 41.8643 137.931 42.0029L137.983 41.9899C137.974 41.8426 137.965 41.7083 137.957 41.5869C137.957 41.4569 137.957 41.2966 137.957 41.1059V35.0999C137.957 34.9093 138.13 34.8139 138.477 34.8139H138.568C138.914 34.8139 139.088 34.9093 139.088 35.0999V43.6799C139.088 43.8706 138.914 43.9659 138.568 43.9659H138.308C138.186 43.9659 138.091 43.9529 138.022 43.9269C137.952 43.8923 137.896 43.8446 137.853 43.7839L133.667 37.4659C133.58 37.3359 133.502 37.2103 133.433 37.0889C133.372 36.9589 133.307 36.8246 133.238 36.6859L133.186 36.6989C133.203 36.8463 133.212 36.9849 133.212 37.1149C133.212 37.2363 133.212 37.3923 133.212 37.5829V43.6799C133.212 43.8706 133.038 43.9659 132.692 43.9659H132.601ZM143.426 44.0179C142.872 44.0179 142.378 43.9529 141.944 43.8229C141.511 43.6929 141.19 43.5499 140.982 43.3939C140.818 43.2726 140.735 43.1643 140.735 43.0689C140.735 42.9996 140.761 42.9086 140.813 42.7959C140.874 42.6833 140.939 42.5836 141.008 42.4969C141.086 42.4103 141.147 42.3669 141.19 42.3669C141.216 42.3669 141.251 42.3799 141.294 42.4059C141.346 42.4233 141.403 42.4536 141.463 42.4969C141.637 42.5923 141.888 42.7049 142.217 42.8349C142.547 42.9649 142.95 43.0299 143.426 43.0299C143.756 43.0299 144.046 42.9693 144.297 42.8479C144.557 42.7179 144.761 42.5359 144.908 42.3019C145.056 42.0679 145.129 41.7993 145.129 41.4959C145.129 41.1493 145.034 40.8719 144.843 40.6639C144.661 40.4473 144.419 40.2696 144.115 40.1309C143.821 39.9923 143.504 39.8579 143.166 39.7279C142.889 39.6239 142.616 39.5113 142.347 39.3899C142.079 39.2599 141.836 39.1039 141.619 38.9219C141.403 38.7399 141.229 38.5103 141.099 38.2329C140.969 37.9469 140.904 37.5916 140.904 37.1669C140.904 36.6989 141.021 36.2829 141.255 35.9189C141.498 35.5549 141.836 35.2733 142.269 35.0739C142.703 34.8659 143.21 34.7619 143.79 34.7619C143.972 34.7619 144.176 34.7793 144.401 34.8139C144.635 34.8486 144.861 34.9006 145.077 34.9699C145.303 35.0393 145.485 35.1216 145.623 35.2169C145.797 35.3209 145.883 35.4336 145.883 35.5549C145.883 35.6156 145.857 35.7023 145.805 35.8149C145.753 35.9276 145.693 36.0273 145.623 36.1139C145.563 36.2006 145.511 36.2439 145.467 36.2439C145.433 36.2439 145.385 36.2309 145.324 36.2049C145.272 36.1703 145.203 36.1313 145.116 36.0879C144.978 36.0186 144.8 35.9449 144.583 35.8669C144.367 35.7889 144.094 35.7499 143.764 35.7499C143.444 35.7499 143.153 35.8063 142.893 35.9189C142.642 36.0316 142.443 36.1963 142.295 36.4129C142.157 36.6296 142.087 36.8983 142.087 37.2189C142.087 37.5309 142.17 37.7779 142.334 37.9599C142.499 38.1419 142.716 38.2936 142.984 38.4149C143.253 38.5276 143.543 38.6446 143.855 38.7659C144.141 38.8786 144.427 39.0043 144.713 39.1429C145.008 39.2729 145.277 39.4376 145.519 39.6369C145.762 39.8363 145.953 40.0876 146.091 40.3909C146.239 40.6856 146.312 41.0539 146.312 41.4959C146.312 41.8859 146.243 42.2369 146.104 42.5489C145.974 42.8609 145.779 43.1253 145.519 43.3419C145.268 43.5586 144.965 43.7276 144.609 43.8489C144.263 43.9616 143.868 44.0179 143.426 44.0179Z" fill="#353535"/>
</svg>
