<svg width="127" height="69" viewBox="0 0 127 69" fill="none" xmlns="http://www.w3.org/2000/svg">
<path d="M2.64267 35V5.90909H8.79324V17.9119H21.279V5.90909H27.4154V35H21.279V22.983H8.79324V35H2.64267ZM38.637 5.90909V35H32.4864V5.90909H38.637ZM62.9871 15.3125C62.7883 14.6212 62.5089 14.0104 62.1491 13.4801C61.7892 12.9403 61.3489 12.4858 60.828 12.1165C60.3167 11.7377 59.7296 11.4489 59.0667 11.25C58.4133 11.0511 57.6888 10.9517 56.8934 10.9517C55.4066 10.9517 54.0998 11.321 52.9729 12.0597C51.8555 12.7983 50.9843 13.8731 50.3593 15.2841C49.7343 16.6856 49.4218 18.3996 49.4218 20.4261C49.4218 22.4527 49.7296 24.1761 50.3451 25.5966C50.9606 27.017 51.8318 28.1013 52.9587 28.8494C54.0856 29.5881 55.4161 29.9574 56.9502 29.9574C58.3422 29.9574 59.5307 29.7112 60.5155 29.2188C61.5099 28.7169 62.2674 28.0114 62.7883 27.1023C63.3186 26.1932 63.5837 25.1184 63.5837 23.8778L64.8337 24.0625H57.3337V19.4318H69.507V23.0966C69.507 25.6534 68.9672 27.8504 67.8877 29.6875C66.8082 31.5152 65.3214 32.9261 63.4275 33.9205C61.5335 34.9053 59.365 35.3977 56.9218 35.3977C54.1945 35.3977 51.7987 34.7964 49.7343 33.5938C47.6699 32.3816 46.06 30.6629 44.9047 28.4375C43.7589 26.2027 43.186 23.5511 43.186 20.483C43.186 18.125 43.5269 16.0227 44.2087 14.1761C44.9 12.3201 45.8659 10.7481 47.1064 9.46023C48.347 8.17235 49.7911 7.19223 51.4388 6.51989C53.0866 5.84754 54.8716 5.51136 56.7939 5.51136C58.4417 5.51136 59.9758 5.75284 61.3962 6.2358C62.8167 6.70928 64.0761 7.38163 65.1746 8.25284C66.2826 9.12405 67.1869 10.161 67.8877 11.3636C68.5885 12.5568 69.0383 13.8731 69.2371 15.3125H62.9871ZM74.127 35V5.90909H80.2776V17.9119H92.7634V5.90909H98.8998V35H92.7634V22.983H80.2776V35H74.127ZM7.11887 47.0898C7.06916 46.6246 6.85964 46.2624 6.49032 46.0032C6.12456 45.744 5.6487 45.6143 5.06277 45.6143C4.65083 45.6143 4.2975 45.6765 4.00275 45.8008C3.70801 45.9251 3.48251 46.0937 3.32626 46.3068C3.17001 46.5199 3.09011 46.7631 3.08656 47.0366C3.08656 47.2638 3.13805 47.4609 3.24103 47.6278C3.34757 47.7947 3.49139 47.9368 3.6725 48.054C3.8536 48.1676 4.05424 48.2635 4.27441 48.3416C4.49458 48.4197 4.71653 48.4854 4.94025 48.5387L5.96298 48.7944C6.37491 48.8903 6.77086 49.0199 7.15083 49.1832C7.53436 49.3466 7.87704 49.5526 8.17889 49.8011C8.48429 50.0497 8.72576 50.3498 8.90332 50.7013C9.08088 51.0529 9.16966 51.4648 9.16966 51.9371C9.16966 52.5763 9.0063 53.1392 8.6796 53.6257C8.35289 54.1087 7.88059 54.4869 7.2627 54.7603C6.64835 55.0302 5.90439 55.1651 5.03081 55.1651C4.18208 55.1651 3.44522 55.0337 2.82022 54.771C2.19877 54.5082 1.71227 54.1246 1.36071 53.6204C1.0127 53.1161 0.824485 52.5018 0.796076 51.7773H2.74032C2.76873 52.1573 2.88592 52.4734 3.09189 52.7255C3.29785 52.9776 3.56596 53.1658 3.89622 53.2901C4.23002 53.4144 4.60289 53.4766 5.01483 53.4766C5.44451 53.4766 5.82093 53.4126 6.14409 53.2848C6.47079 53.1534 6.72647 52.9723 6.91113 52.7415C7.09579 52.5071 7.1899 52.2337 7.19345 51.9212C7.1899 51.6371 7.10645 51.4027 6.94309 51.218C6.77974 51.0298 6.55069 50.8736 6.25595 50.7493C5.96476 50.6214 5.62385 50.5078 5.23322 50.4084L3.9921 50.0888C3.09366 49.858 2.38343 49.5082 1.86142 49.0394C1.34295 48.5671 1.08372 47.9403 1.08372 47.1591C1.08372 46.5163 1.25772 45.9535 1.60574 45.4705C1.9573 44.9876 2.43493 44.6129 3.03862 44.3466C3.64231 44.0767 4.32591 43.9418 5.0894 43.9418C5.86355 43.9418 6.54181 44.0767 7.1242 44.3466C7.71014 44.6129 8.17001 44.984 8.50382 45.4599C8.83762 45.9322 9.00985 46.4755 9.02051 47.0898H7.11887ZM14.4151 55.1598C13.5984 55.1598 12.897 54.9805 12.3111 54.6218C11.7287 54.2631 11.2795 53.7678 10.9634 53.1357C10.6509 52.5 10.4947 51.7685 10.4947 50.9411C10.4947 50.1101 10.6545 49.3768 10.9741 48.7411C11.2937 48.1019 11.7447 47.6048 12.3271 47.2496C12.913 46.891 13.6055 46.7116 14.4045 46.7116C15.0685 46.7116 15.6563 46.8342 16.1676 47.0792C16.6825 47.3207 17.0927 47.6634 17.3981 48.1072C17.7035 48.5476 17.8775 49.0625 17.9201 49.652H16.0771C16.0025 49.2578 15.8249 48.9293 15.5444 48.6665C15.2674 48.4002 14.8963 48.267 14.4311 48.267C14.0369 48.267 13.6907 48.3736 13.3924 48.5866C13.0941 48.7962 12.8615 49.098 12.6946 49.4922C12.5313 49.8864 12.4496 50.3587 12.4496 50.9091C12.4496 51.4666 12.5313 51.946 12.6946 52.3473C12.858 52.745 13.087 53.0522 13.3817 53.2688C13.68 53.4819 14.0298 53.5884 14.4311 53.5884C14.7152 53.5884 14.9691 53.5352 15.1928 53.4286C15.4201 53.3185 15.6101 53.1605 15.7628 52.9545C15.9155 52.7486 16.0202 52.4982 16.0771 52.2035H17.9201C17.8739 52.7823 17.7035 53.2955 17.4087 53.7429C17.114 54.1868 16.7127 54.5348 16.2049 54.7869C15.6971 55.0355 15.1005 55.1598 14.4151 55.1598ZM21.4317 50.206V55H19.5035V44.0909H21.3891V48.2085H21.485C21.6768 47.7468 21.9733 47.3828 22.3746 47.1165C22.7794 46.8466 23.2943 46.7116 23.9193 46.7116C24.4875 46.7116 24.9829 46.8306 25.4055 47.0685C25.828 47.3065 26.1547 47.6545 26.3856 48.1126C26.6199 48.5707 26.7371 49.13 26.7371 49.7905V55H24.8089V50.0888C24.8089 49.5384 24.6668 49.1104 24.3827 48.805C24.1022 48.4961 23.708 48.3416 23.2002 48.3416C22.8593 48.3416 22.5539 48.4162 22.284 48.5653C22.0177 48.7109 21.8081 48.9222 21.6555 49.1992C21.5063 49.4762 21.4317 49.8118 21.4317 50.206ZM32.2716 55.1598C31.4726 55.1598 30.7801 54.984 30.1942 54.6325C29.6082 54.2809 29.1537 53.7891 28.8305 53.157C28.5109 52.5249 28.3511 51.7862 28.3511 50.9411C28.3511 50.0959 28.5109 49.3555 28.8305 48.7198C29.1537 48.0842 29.6082 47.5906 30.1942 47.239C30.7801 46.8874 31.4726 46.7116 32.2716 46.7116C33.0706 46.7116 33.7631 46.8874 34.349 47.239C34.9349 47.5906 35.3877 48.0842 35.7073 48.7198C36.0305 49.3555 36.192 50.0959 36.192 50.9411C36.192 51.7862 36.0305 52.5249 35.7073 53.157C35.3877 53.7891 34.9349 54.2809 34.349 54.6325C33.7631 54.984 33.0706 55.1598 32.2716 55.1598ZM32.2822 53.6151C32.7155 53.6151 33.0777 53.4961 33.3689 53.2582C33.6601 53.0167 33.8767 52.6935 34.0187 52.2887C34.1643 51.8839 34.2371 51.4329 34.2371 50.9357C34.2371 50.435 34.1643 49.9822 34.0187 49.5774C33.8767 49.169 33.6601 48.8441 33.3689 48.6026C33.0777 48.3612 32.7155 48.2404 32.2822 48.2404C31.8383 48.2404 31.469 48.3612 31.1743 48.6026C30.8831 48.8441 30.6647 49.169 30.5191 49.5774C30.377 49.9822 30.306 50.435 30.306 50.9357C30.306 51.4329 30.377 51.8839 30.5191 52.2887C30.6647 52.6935 30.8831 53.0167 31.1743 53.2582C31.469 53.4961 31.8383 53.6151 32.2822 53.6151ZM41.3975 55.1598C40.5985 55.1598 39.9061 54.984 39.3201 54.6325C38.7342 54.2809 38.2797 53.7891 37.9565 53.157C37.6369 52.5249 37.4771 51.7862 37.4771 50.9411C37.4771 50.0959 37.6369 49.3555 37.9565 48.7198C38.2797 48.0842 38.7342 47.5906 39.3201 47.239C39.9061 46.8874 40.5985 46.7116 41.3975 46.7116C42.1966 46.7116 42.889 46.8874 43.475 47.239C44.0609 47.5906 44.5137 48.0842 44.8333 48.7198C45.1564 49.3555 45.318 50.0959 45.318 50.9411C45.318 51.7862 45.1564 52.5249 44.8333 53.157C44.5137 53.7891 44.0609 54.2809 43.475 54.6325C42.889 54.984 42.1966 55.1598 41.3975 55.1598ZM41.4082 53.6151C41.8414 53.6151 42.2037 53.4961 42.4949 53.2582C42.786 53.0167 43.0027 52.6935 43.1447 52.2887C43.2903 51.8839 43.3631 51.4329 43.3631 50.9357C43.3631 50.435 43.2903 49.9822 43.1447 49.5774C43.0027 49.169 42.786 48.8441 42.4949 48.6026C42.2037 48.3612 41.8414 48.2404 41.4082 48.2404C40.9643 48.2404 40.595 48.3612 40.3002 48.6026C40.0091 48.8441 39.7907 49.169 39.6451 49.5774C39.503 49.9822 39.432 50.435 39.432 50.9357C39.432 51.4329 39.503 51.8839 39.6451 52.2887C39.7907 52.6935 40.0091 53.0167 40.3002 53.2582C40.595 53.4961 40.9643 53.6151 41.4082 53.6151ZM48.8829 44.0909V55H46.9546V44.0909H48.8829Z" fill="black"/>
</svg>
