<svg width="43" height="48" viewBox="0 0 43 48" fill="none" xmlns="http://www.w3.org/2000/svg">
<path d="M20.8013 18.85L26.5313 12.5L32.3313 19.09" stroke="#353535" stroke-width="3" stroke-miterlimit="10" stroke-linecap="square"/>
<path d="M2.00098 28.0001L15.151 13.1501L29.621 29.5801C29.621 29.5801 36.951 21.2101 38.561 19.0001C41.971 14.7001 42.651 3.7001 31.031 2.0001H6.68098C6.07033 1.99615 5.46488 2.11251 4.8992 2.34255C4.33352 2.57259 3.8187 2.9118 3.38411 3.34081C2.94953 3.76982 2.60371 4.28023 2.36639 4.84289C2.12907 5.40555 2.0049 6.00945 2.00098 6.6201V28.0001Z" stroke="#353535" stroke-width="3" stroke-miterlimit="10" stroke-linecap="round"/>
<path d="M37.681 27.72L27.561 39.18L15.421 25.55C15.421 25.55 4.33102 38.1001 2.62102 40.1101C0.921015 42.2801 2.72102 46.11 7.90102 46H32.361C34.961 46 40.001 42.28 40.621 37.48C40.8564 35.7376 40.7158 33.965 40.2087 32.2814C39.7015 30.5979 38.8397 29.0426 37.681 27.72Z" stroke="#48A855" stroke-width="3" stroke-miterlimit="10"/>
<path d="M33.811 14.5801C35.4679 14.5801 36.811 13.2369 36.811 11.5801C36.811 9.92322 35.4679 8.58008 33.811 8.58008C32.1542 8.58008 30.811 9.92322 30.811 11.5801C30.811 13.2369 32.1542 14.5801 33.811 14.5801Z" fill="#F7931E"/>
</svg>
