<?xml version="1.0" encoding="utf-8"?>
<svg viewBox="0 0 498.392 143.753" xmlns="http://www.w3.org/2000/svg" width="500" height="145">
  <rect x="-0.424" y="-0.865" width="500" height="145" style="fill: rgba(255, 204, 0, 0.18);"/>
  <path d="M 57.045 105.622 L 40.155 105.622 L 40.155 103.222 L 47.405 103.222 L 47.405 43.322 L 40.155 43.322 L 40.155 40.922 L 57.045 40.922 L 57.045 43.322 L 49.805 43.322 L 49.805 103.222 L 57.045 103.222 L 57.045 105.622 ZM 102.011 105.622 L 85.121 105.622 L 85.121 103.222 L 92.371 103.222 L 92.371 43.322 L 85.121 43.322 L 85.121 40.922 L 92.371 40.922 L 95.791 40.922 L 122.271 101.802 L 122.541 101.802 L 149.111 40.922 L 159.861 40.922 L 159.861 43.322 L 152.621 43.322 L 152.621 103.222 L 159.861 103.222 L 159.861 105.622 L 142.981 105.622 L 142.981 103.222 L 150.221 103.222 L 150.221 68.072 L 150.221 45.152 L 149.951 45.062 L 123.381 105.622 L 121.471 105.622 L 95.031 45.372 L 94.771 45.462 L 94.771 66.872 L 94.771 103.222 L 102.011 103.222 L 102.011 105.622 ZM 195.896 106.552 C 191.869 106.552 188.196 105.775 184.876 104.222 C 181.556 102.669 178.699 100.449 176.306 97.562 C 173.906 94.669 172.052 91.209 170.746 87.182 C 169.446 83.155 168.796 78.652 168.796 73.672 L 168.796 72.872 C 168.796 67.899 169.439 63.395 170.726 59.362 C 172.012 55.335 173.856 51.879 176.256 48.992 C 178.656 46.105 181.506 43.882 184.806 42.322 C 188.112 40.769 191.779 39.992 195.806 39.992 C 199.806 39.992 203.466 40.769 206.786 42.322 C 210.099 43.882 212.962 46.105 215.376 48.992 C 217.796 51.879 219.656 55.335 220.956 59.362 C 222.262 63.395 222.916 67.899 222.916 72.872 L 222.916 73.672 C 222.916 78.652 222.262 83.162 220.956 87.202 C 219.656 91.249 217.812 94.709 215.426 97.582 C 213.039 100.455 210.189 102.669 206.876 104.222 C 203.556 105.775 199.896 106.552 195.896 106.552 Z M 195.896 104.152 C 200.902 104.152 205.249 102.895 208.936 100.382 C 212.622 97.862 215.476 94.312 217.496 89.732 C 219.509 85.159 220.516 79.805 220.516 73.672 L 220.516 72.782 C 220.516 66.682 219.499 61.352 217.466 56.792 C 215.439 52.225 212.576 48.685 208.876 46.172 C 205.169 43.652 200.812 42.392 195.806 42.392 C 190.832 42.392 186.509 43.652 182.836 46.172 C 179.162 48.685 176.309 52.225 174.276 56.792 C 172.249 61.352 171.236 66.682 171.236 72.782 L 171.236 73.672 C 171.236 79.805 172.249 85.159 174.276 89.732 C 176.309 94.312 179.169 97.862 182.856 100.382 C 186.542 102.895 190.889 104.152 195.896 104.152 ZM 257.081 105.622 L 232.281 105.622 L 232.281 103.222 L 239.531 103.222 L 239.531 43.322 L 232.281 43.322 L 232.281 40.922 L 239.531 40.922 L 257.081 40.922 C 262.381 40.922 267.098 42.292 271.231 45.032 C 275.365 47.772 278.625 51.542 281.011 56.342 C 283.391 61.142 284.581 66.652 284.581 72.872 L 284.581 73.672 C 284.581 79.892 283.391 85.402 281.011 90.202 C 278.625 95.002 275.365 98.772 271.231 101.512 C 267.098 104.252 262.381 105.622 257.081 105.622 Z M 241.931 43.322 L 241.931 103.222 L 257.081 103.222 C 261.908 103.222 266.211 101.942 269.991 99.382 C 273.765 96.815 276.741 93.305 278.921 88.852 C 281.095 84.392 282.181 79.332 282.181 73.672 L 282.181 72.742 C 282.181 67.115 281.095 62.085 278.921 57.652 C 276.741 53.225 273.765 49.732 269.991 47.172 C 266.211 44.605 261.908 43.322 257.081 43.322 L 241.931 43.322 ZM 322.755 106.552 C 318.342 106.552 314.475 105.715 311.155 104.042 C 307.835 102.369 305.252 99.912 303.405 96.672 C 301.552 93.425 300.625 89.462 300.625 84.782 L 300.625 43.322 L 293.385 43.322 L 293.385 40.922 L 310.265 40.922 L 310.265 43.322 L 303.025 43.322 L 303.025 84.782 C 303.025 88.842 303.862 92.315 305.535 95.202 C 307.208 98.089 309.525 100.302 312.485 101.842 C 315.452 103.382 318.875 104.152 322.755 104.152 C 326.602 104.152 330.008 103.382 332.975 101.842 C 335.935 100.302 338.252 98.089 339.925 95.202 C 341.598 92.315 342.435 88.842 342.435 84.782 L 342.435 43.322 L 335.195 43.322 L 335.195 40.922 L 352.075 40.922 L 352.075 43.322 L 344.835 43.322 L 344.835 84.782 C 344.835 89.495 343.902 93.465 342.035 96.692 C 340.168 99.919 337.575 102.369 334.255 104.042 C 330.942 105.715 327.108 106.552 322.755 106.552 ZM 400.772 105.622 L 357.892 105.622 L 357.892 103.222 L 365.142 103.222 L 365.142 43.322 L 357.892 43.322 L 357.892 40.922 L 365.142 40.922 L 367.582 40.922 L 374.822 40.922 L 374.822 43.322 L 367.582 43.322 L 367.582 103.222 L 398.372 103.222 L 398.372 92.602 L 400.772 92.602 L 400.772 105.622 ZM 456.099 105.622 L 409.479 105.622 L 409.479 103.222 L 416.729 103.222 L 416.729 43.322 L 409.479 43.322 L 409.479 40.922 L 454.759 40.922 L 454.759 53.942 L 452.359 53.942 L 452.359 43.322 L 419.129 43.322 L 419.129 70.702 L 447.119 70.702 L 447.119 73.092 L 419.129 73.092 L 419.129 103.222 L 453.699 103.222 L 453.699 92.602 L 456.099 92.602 L 456.099 105.622 Z" transform="matrix(1, 0, 0, 1, 0, 0)" style="fill: rgb(255, 183, 0); white-space: pre;"/>
  <path style="fill: rgba(255, 255, 255, 0); paint-order: fill; fill-rule: evenodd; stroke-width: 3px; stroke: rgb(255, 183, 0);" d="M 437.336 1.447 L 496.684 0.919 L 497.294 58.456"/>
  <path style="fill: rgba(255, 255, 255, 0); paint-order: fill; fill-rule: evenodd; stroke-width: 3px; stroke: rgb(255, 183, 0);" d="M 1.268 86.023 L 60.616 85.495 L 61.226 143.032" transform="matrix(-1, 0, 0, -1, 62.494, 228.526996)"/>
</svg>